<?xml version="1.0" encoding="UTF-8" standalone="no"?>
<svg xmlns="http://www.w3.org/2000/svg" xmlns:xlink="http://www.w3.org/1999/xlink" version="1.1" width="700" height="700" viewBox="129 125 700 700"><g id="document" fill="#ffffff" fill-rule="nonzero" stroke="#000000" stroke-width="0" stroke-linecap="butt" stroke-linejoin="miter" stroke-miterlimit="10" font-family="none" font-weight="none" font-size="none"><rect x="129" y="89.28571" transform="scale(1,1.4)" width="700" height="500" id="Shape-1-1"/></g><g fill="none" fill-rule="nonzero" stroke="none" stroke-width="none" stroke-linecap="none" stroke-linejoin="none" stroke-miterlimit="10" font-family="none" font-weight="none" font-size="none"><g id="stage"><g id="layer1-1"><path d="M425,561" id="Path-1" fill-opacity="0" fill="#000000" stroke="#000000" stroke-width="1" stroke-linecap="round" stroke-linejoin="round"/><g id="Path-1-1"><path d="M272,280c4.18272,16.95712 16.43617,32.24255 24.96177,47.42599c10.05949,17.91518 18.60997,37.02279 27.54812,55.5268c12.75278,26.40118 26.59764,52.3007 39.72313,78.52182c6.5554,13.09588 11.60675,26.94559 17.10936,40.51518c11.585,28.56894 22.07313,57.01887 31.51897,86.36574c6.31739,19.62721 11.51616,39.78623 19.01664,58.9937c11.63575,29.79722 23.8938,59.39349 35.20932,89.30718c4.81753,12.7356 13.86316,27.77181 13.91264,41.33109" id="Path-1-2" fill-opacity="0" fill="#000000" stroke="#000000" stroke-width="0" stroke-linecap="round" stroke-linejoin="round"/><path d="M480.90098,777.34608c0.01049,0.04184 0.04858,0.07082 0.0917,0.06977c0.04312,-0.00105 0.07976,-0.03184 0.0882,-0.07414v0l0.01502,-1.00494l-0.01502,-1.00634l-0.04343,-1.00673l-0.07021,-1.00627l-0.09537,-1.00508l-0.11898,-1.00332l-0.14108,-1.00107l-0.1617,-0.99843l-0.18096,-0.99551l-0.19887,-0.99237l-0.21554,-0.98906l-0.231,-0.98567l-0.24534,-0.98221l-0.25861,-0.97875l-0.27086,-0.9753l-0.28215,-0.97191l-0.29252,-0.96859l-0.30202,-0.96535l-0.31068,-0.96223l-0.31856,-0.95923l-0.32567,-0.95636l-0.33203,-0.95362l-0.33768,-0.95103l-0.34265,-0.9486l-0.34693,-0.94632l-0.35054,-0.9442l-0.3535,-0.94224l-0.35581,-0.94043l-0.35745,-0.9388l-0.35845,-0.93731l-0.35879,-0.93599l-0.35844,-0.93482l-0.3574,-0.93379l-0.35565,-0.93292l-0.35317,-0.93216l-0.34989,-0.93155l-0.34582,-0.93104l-0.34088,-0.93062l-0.33503,-0.93028l-0.3282,-0.93l-0.32031,-0.92972l-0.31129,-0.92943l-0.30103,-0.92906l-0.30095,-0.94942l-0.30375,-0.95601l-0.30436,-0.95583l-0.30494,-0.95565l-0.30553,-0.95547l-0.3061,-0.95528l-0.30665,-0.95511l-0.3072,-0.95493l-0.30773,-0.95476l-0.30825,-0.95459l-0.30877,-0.95441l-0.30927,-0.95425l-0.30976,-0.95408l-0.31024,-0.95392l-0.31071,-0.95376l-0.31116,-0.9536l-0.3116,-0.95344l-0.31205,-0.95328l-0.31246,-0.95314l-0.31287,-0.95298l-0.31328,-0.95283l-0.31366,-0.95269l-0.31404,-0.95254l-0.31441,-0.9524l-0.31477,-0.95226l-0.31511,-0.95212l-0.31544,-0.95199l-0.31576,-0.95186l-0.31608,-0.95172l-0.31637,-0.9516l-0.31667,-0.95146l-0.31694,-0.95135l-0.31721,-0.95122l-0.31746,-0.95111l-0.31771,-0.95099l-0.31794,-0.95087l-0.31816,-0.95076l-0.31837,-0.95066l-0.31857,-0.95054l-0.31877,-0.95044l-0.31894,-0.95034l-0.3191,-0.95024l-0.31926,-0.95014l-0.31941,-0.95004l-0.31954,-0.94995l-0.31966,-0.94986l-0.31977,-0.94978l-0.31988,-0.94969l-0.31996,-0.9496l-0.32004,-0.94952l-0.32011,-0.94945l-0.32016,-0.94937l-0.32021,-0.94929l-0.32024,-0.94923l-0.32026,-0.94915l-0.32028,-0.94909l-0.32028,-0.94903l-0.32026,-0.94896l-0.32025,-0.94891l-0.32021,-0.94884l-0.32017,-0.9488l-0.32011,-0.94874l-0.32005,-0.9487l-0.31998,-0.94864l-0.31988,-0.94861l-0.31979,-0.94856l-0.31967,-0.94852l-0.31956,-0.94848l-0.31943,-0.94845l-0.31928,-0.94842l-0.31912,-0.94839l-0.31897,-0.94836l-0.31878,-0.94833l-0.31861,-0.94831l-0.3184,-0.94829l-0.31819,-0.94828l-0.31798,-0.94825l-0.31774,-0.94825l-0.3175,-0.94823l-0.31725,-0.94823l-0.31698,-0.94821l-0.31671,-0.94822l-0.31642,-0.94821l-0.31613,-0.94821l-0.31581,-0.94822l-0.3155,-0.94822l-0.31517,-0.94823l-0.31483,-0.94824l-0.31447,-0.94825l-0.31411,-0.94826l-0.31374,-0.94828l-0.31335,-0.9483l-0.31295,-0.94832l-0.31255,-0.94834l-0.31213,-0.94837l-0.3117,-0.94839l-0.30302,-0.92996l-0.29736,-0.92539l-0.2941,-0.92701l-0.29091,-0.92859l-0.28781,-0.93014l-0.2848,-0.93167l-0.28187,-0.93317l-0.27903,-0.93464l-0.27628,-0.93609l-0.27361,-0.93752l-0.27102,-0.93891l-0.26853,-0.94029l-0.26612,-0.94164l-0.2638,-0.94297l-0.26157,-0.94428l-0.25941,-0.94557l-0.25736,-0.94684l-0.25539,-0.94809l-0.25351,-0.94931l-0.25171,-0.95053l-0.25001,-0.95172l-0.24839,-0.95289l-0.24686,-0.95405l-0.24542,-0.9552l-0.24407,-0.95631l-0.24281,-0.95743l-0.24164,-0.95853l-0.24056,-0.9596l-0.23957,-0.96067l-0.23866,-0.96171l-0.23786,-0.96276l-0.23713,-0.96378l-0.23651,-0.96479l-0.23596,-0.96579l-0.23552,-0.96677l-0.23516,-0.96774l-0.2349,-0.9687l-0.23472,-0.96965l-0.23465,-0.97059l-0.23466,-0.97151l-0.23476,-0.97242l-0.23496,-0.97332l-0.23525,-0.97422l-0.23564,-0.97508l-0.23611,-0.97595l-0.23669,-0.97681l-0.23736,-0.97765l-0.23812,-0.97847l-0.23898,-0.9793l-0.23993,-0.9801l-0.24099,-0.98089l-0.24213,-0.98167l-0.24338,-0.98244l-0.24472,-0.98319l-0.24616,-0.98394l-0.2477,-0.98466l-0.24933,-0.98537l-0.25107,-0.98608l-0.25291,-0.98675l-0.25484,-0.98742l-0.25688,-0.98808l-0.25901,-0.9887l-0.25817,-0.98078l-0.25823,-0.97792l-0.25911,-0.97774l-0.25999,-0.97753l-0.26086,-0.97735l-0.26174,-0.97714l-0.26261,-0.97695l-0.26348,-0.97675l-0.26435,-0.97655l-0.26523,-0.97634l-0.26609,-0.97615l-0.26695,-0.97595l-0.26782,-0.97574l-0.26868,-0.97553l-0.26955,-0.97534l-0.2704,-0.97512l-0.27126,-0.97492l-0.27211,-0.97471l-0.27297,-0.97451l-0.27382,-0.97429l-0.27468,-0.97408l-0.27552,-0.97388l-0.27636,-0.97366l-0.27721,-0.97345l-0.27806,-0.97323l-0.27889,-0.97302l-0.27974,-0.97281l-0.28057,-0.97259l-0.2814,-0.97237l-0.28224,-0.97216l-0.28306,-0.97194l-0.2839,-0.97172l-0.28472,-0.9715l-0.28554,-0.97128l-0.28636,-0.97106l-0.28719,-0.97084l-0.288,-0.97061l-0.28881,-0.9704l-0.28963,-0.97017l-0.29043,-0.96994l-0.29124,-0.96973l-0.29205,-0.96949l-0.29285,-0.96927l-0.29364,-0.96905l-0.29445,-0.96882l-0.29524,-0.96859l-0.29602,-0.96836l-0.29682,-0.96813l-0.29761,-0.96791l-0.29839,-0.96767l-0.29916,-0.96745l-0.29995,-0.96721l-0.30072,-0.96698l-0.3015,-0.96676l-0.30226,-0.96652l-0.30304,-0.96628l-0.30379,-0.96606l-0.30456,-0.96582l-0.30531,-0.96559l-0.30607,-0.96535l-0.30682,-0.96512l-0.30758,-0.96489l-0.30831,-0.96465l-0.30906,-0.96441l-0.30981,-0.96418l-0.31053,-0.96394l-0.31128,-0.96371l-0.312,-0.96347l-0.31273,-0.96323l-0.31346,-0.963l-0.31418,-0.96276l-0.31489,-0.96252l-0.31561,-0.96229l-0.31633,-0.96204l-0.31703,-0.96181l-0.36889,-0.94151l-0.42333,-0.92006l-0.42397,-0.91967l-0.42461,-0.91928l-0.42524,-0.91889l-0.42587,-0.9185l-0.4265,-0.91811l-0.42712,-0.91773l-0.42774,-0.91734l-0.42836,-0.91696l-0.42897,-0.91657l-0.42958,-0.9162l-0.43019,-0.91581l-0.43079,-0.91543l-0.43139,-0.91506l-0.43199,-0.91467l-0.43259,-0.9143l-0.4229,-0.89049l-0.41997,-0.88703l-0.41962,-0.88973l-0.41942,-0.89234l-0.41933,-0.89488l-0.41937,-0.89732l-0.41954,-0.89968l-0.41984,-0.90196l-0.42027,-0.90415l-0.42083,-0.90626l-0.42153,-0.90829l-0.42235,-0.91023l-0.42331,-0.91209l-0.4244,-0.91387l-0.42564,-0.91556l-0.427,-0.91718l-0.42852,-0.9187l-0.43015,-0.92014l-0.43194,-0.92149l-0.43386,-0.92277l-0.43593,-0.92395l-0.43813,-0.92506l-0.44049,-0.92606l-0.44297,-0.92698l-0.44561,-0.92782l-0.44838,-0.92856l-0.4513,-0.9292l-0.45438,-0.92976l-0.45758,-0.93022l-0.46094,-0.93059l-0.46443,-0.93084l-0.46809,-0.93101l-0.47188,-0.93108l-0.47581,-0.93103l-0.47989,-0.93088l-0.48412,-0.93062l-0.48849,-0.93025l-0.493,-0.92977l-0.49766,-0.92917l-0.50246,-0.92846l-0.5074,-0.92762l-0.51248,-0.92665l-0.5177,-0.92557l-0.52306,-0.92434l-0.50729,-0.88416l-0.50305,-0.87411l-0.50345,-0.87361l-0.50383,-0.87312l-0.5042,-0.87263l-0.50455,-0.87216l-0.5049,-0.8717l-0.50522,-0.87124l-0.50553,-0.87081l-0.50582,-0.87037l-0.50611,-0.86996l-0.50637,-0.86954l-0.50663,-0.86915l-0.50686,-0.86876l-0.50708,-0.86839l-0.50729,-0.86801l-0.50749,-0.86766l-0.50767,-0.86732l-0.50783,-0.86698l-0.50798,-0.86666l-0.50812,-0.86634l-0.50824,-0.86605l-0.50835,-0.86575l-0.50844,-0.86547l-0.50852,-0.8652l-0.50858,-0.86494l-0.50863,-0.86469l-0.50867,-0.86446l-0.5087,-0.86423l-0.5087,-0.86401l-0.50869,-0.8638l-0.50867,-0.86362l-0.50864,-0.86342l-0.50859,-0.86325l-0.50852,-0.86309l-0.50845,-0.86294l-0.50836,-0.8628l-0.50825,-0.86266l-0.50813,-0.86255l-0.50799,-0.86243l-0.50785,-0.86234l-0.50768,-0.86225l-0.50751,-0.86217l-0.50732,-0.86211l-0.50711,-0.86204l-0.5069,-0.86201l-0.50666,-0.86196l-0.50641,-0.86195l-0.50615,-0.86192l-0.50588,-0.86193l-0.50559,-0.86193l-0.50528,-0.86195l-0.50497,-0.86198l-0.50463,-0.86202l-0.50429,-0.86207l-0.50393,-0.86212l-0.50355,-0.8622l-0.50316,-0.86228l-0.50276,-0.86237l-0.50235,-0.86247l-0.50191,-0.86258l-0.50147,-0.8627l-0.50101,-0.86284l-0.50053,-0.86298l-0.50005,-0.86313l-0.49954,-0.8633l-0.49902,-0.86347l-0.4985,-0.86365l-0.49795,-0.86385l-0.49739,-0.86405l-0.49682,-0.86426l-0.49623,-0.8645l-0.49562,-0.86472l-0.49501,-0.86497l-0.49438,-0.86523l-0.49373,-0.86549l-0.49307,-0.86576l-0.4924,-0.86605l-0.4917,-0.86634l-0.49101,-0.86665l-0.49028,-0.86696l-0.48955,-0.86729l-0.48881,-0.86762l-0.48804,-0.86797l-0.48727,-0.86831l-0.48647,-0.86868l-0.48567,-0.86906l-0.48485,-0.86943l-0.48401,-0.86983l-0.4834,-0.87066l-0.48287,-0.8715l-0.48239,-0.87229l-0.48196,-0.87306l-0.48158,-0.87377l-0.48126,-0.87446l-0.48098,-0.8751l-0.48076,-0.87571l-0.48059,-0.87627l-0.48046,-0.8768l-0.4804,-0.87729l-0.48037,-0.87774l-0.48042,-0.87816l-0.48049,-0.87853l-0.48064,-0.87888l-0.48082,-0.87918l-0.48106,-0.87945l-0.48135,-0.87968l-0.48169,-0.87988l-0.48209,-0.88003l-0.48253,-0.88015l-0.48303,-0.88023l-0.48358,-0.88028l-0.48417,-0.88029l-0.48483,-0.88026l-0.48553,-0.8802l-0.48629,-0.8801l-0.48709,-0.87996l-0.48795,-0.87978l-0.48886,-0.87958l-0.48982,-0.87932l-0.49084,-0.87904l-0.49189,-0.87871l-0.49302,-0.87834l-0.49418,-0.87795l-0.49541,-0.8775l-0.49668,-0.87703l-0.498,-0.87651l-0.49937,-0.87595l-0.50081,-0.87535l-0.50228,-0.87471l-0.50382,-0.87404l-0.5054,-0.87332l-0.50704,-0.87256l-0.50872,-0.87176l-0.51047,-0.87091l-0.51226,-0.87003l-0.5141,-0.8691l-0.51599,-0.86812l-0.51795,-0.86712l-0.51994,-0.86605l-0.522,-0.86494l-0.5241,-0.8638l-0.52625,-0.86259l-0.52846,-0.86136l-0.53072,-0.86006l-0.53303,-0.85872l-0.53539,-0.85734l-0.5378,-0.8559l-0.54027,-0.85442l-0.54278,-0.85288l-0.55107,-0.85882l-0.55686,-0.85557l-0.56106,-0.85052l-0.56486,-0.84583l-0.56824,-0.84148l-0.57123,-0.83749l-0.57385,-0.83384l-0.5761,-0.83052l-0.57801,-0.82751l-0.57958,-0.82484l-0.58081,-0.82247l-0.58174,-0.8204l-0.58233,-0.81863l-0.58262,-0.81716l-0.58261,-0.81597l-0.5823,-0.81507l-0.58168,-0.81445l-0.58078,-0.81409l-0.57956,-0.81402l-0.57807,-0.8142l-0.57628,-0.81465l-0.57418,-0.81537l-0.57178,-0.81633l-0.5691,-0.81756l-0.56609,-0.81903l-0.56277,-0.82076l-0.55915,-0.82273l-0.55519,-0.82496l-0.55091,-0.82741l-0.54629,-0.83012l-0.54133,-0.83307l-0.53601,-0.83624l-0.53032,-0.83965l-0.52427,-0.8433l-0.51782,-0.84717l-0.51098,-0.85126l-0.50372,-0.85557l-0.49606,-0.86011l-0.48794,-0.86484l-0.47937,-0.86978l-0.47035,-0.87493l-0.46083,-0.88024l-0.45083,-0.88575l-0.44032,-0.89143l-0.42927,-0.89725l-0.41769,-0.90322l-0.40554,-0.90932l-0.39284,-0.91553l-0.37954,-0.92183l-0.36565,-0.9282l-0.35116,-0.93462l-0.33606,-0.94106l-0.32032,-0.94749l-0.30397,-0.95388v0v0v0l0.19228,0.98354l0.20969,0.98098l0.22651,0.97818l0.24275,0.97514l0.25838,0.97193l0.27343,0.96855l0.28786,0.96505l0.30171,0.96144l0.31495,0.95774l0.32763,0.95398l0.3397,0.95018l0.35122,0.94637l0.36218,0.94256l0.37258,0.93875l0.38246,0.93499l0.3918,0.93128l0.40063,0.92761l0.40896,0.92402l0.4168,0.92052l0.42416,0.9171l0.43105,0.91379l0.43749,0.91058l0.44349,0.90749l0.44903,0.90451l0.45417,0.90166l0.45887,0.89895l0.46317,0.89636l0.46706,0.89392l0.47056,0.89161l0.47367,0.88945l0.47638,0.88743l0.47871,0.88556l0.48067,0.88384l0.48225,0.88226l0.48345,0.88085l0.48428,0.87956l0.48474,0.87845l0.48481,0.87748l0.48451,0.87665l0.48383,0.87598l0.48277,0.87545l0.48132,0.87507l0.47947,0.87484l0.47723,0.87475l0.47458,0.87479l0.47152,0.87498l0.46802,0.8753l0.4641,0.87574l0.45973,0.87631l0.45489,0.877l0.44959,0.87781l0.4438,0.87871l0.4375,0.87971l0.43196,0.88292l0.43284,0.89302l0.43025,0.89432l0.42773,0.8956l0.42526,0.89684l0.42287,0.89805l0.42053,0.89923l0.41825,0.90039l0.41603,0.90152l0.41387,0.90262l0.41177,0.90369l0.40974,0.90474l0.40776,0.90576l0.40584,0.90675l0.40399,0.90773l0.40218,0.90868l0.40046,0.9096l0.39877,0.9105l0.39716,0.91138l0.39559,0.91223l0.3941,0.91307l0.39267,0.91388l0.39128,0.91467l0.38996,0.91544l0.38871,0.91619l0.3875,0.91691l0.38636,0.91762l0.38528,0.91832l0.38426,0.91898l0.38329,0.91963l0.3824,0.92026l0.38154,0.92088l0.38077,0.92147l0.38003,0.92205l0.37938,0.9226l0.37876,0.92314l0.37822,0.92367l0.37773,0.92417l0.37731,0.92467l0.37694,0.92513l0.37663,0.92558l0.37639,0.92603l0.37619,0.92644l0.37608,0.92685l0.376,0.92723l0.376,0.92761l0.37606,0.92796l0.37617,0.9283l0.37635,0.92862l0.37659,0.92892l0.37689,0.92921l0.37726,0.92949l0.37768,0.92974l0.37816,0.92998l0.37872,0.93021l0.37932,0.93041l0.38001,0.93059l0.38074,0.93078l0.38154,0.93093l0.38242,0.93106l0.38334,0.93119l0.38434,0.93129l0.38537,0.93133l0.38622,0.93091l0.38703,0.9305l0.38784,0.93009l0.38862,0.92969l0.38938,0.92929l0.39014,0.9289l0.39086,0.9285l0.39158,0.92812l0.39227,0.92774l0.39295,0.92736l0.39361,0.92699l0.39425,0.92663l0.39488,0.92626l0.39549,0.9259l0.39608,0.92555l0.39665,0.9252l0.3972,0.92486l0.39775,0.92453l0.39826,0.92418l0.39877,0.92386l0.39926,0.92354l0.39972,0.92321l0.40017,0.92291l0.40061,0.92259l0.40103,0.92229l0.40142,0.922l0.40181,0.9217l0.40217,0.92141l0.40253,0.92112l0.40285,0.92085l0.40316,0.92058l0.40346,0.92031l0.40374,0.92004l0.40401,0.91979l0.40424,0.91954l0.40448,0.91929l0.40469,0.91905l0.40488,0.91881l0.40505,0.91858l0.40522,0.91835l0.40535,0.91814l0.40549,0.91792l0.40559,0.9177l0.40568,0.91751l0.40576,0.9173l0.40581,0.91711l0.40585,0.91692l0.40588,0.91674l0.40588,0.91656l0.40587,0.91639l0.40585,0.91622l0.4058,0.91606l0.40574,0.9159l0.40566,0.91575l0.40556,0.9156l0.40545,0.91546l0.40532,0.91533l0.40518,0.91519l0.40501,0.91507l0.40483,0.91495l0.40464,0.91484l0.40442,0.91472l0.40419,0.91462l0.40394,0.91452l0.40368,0.91443l0.4034,0.91434l0.4031,0.91426l0.40278,0.91417l0.40245,0.91411l0.4021,0.91403l0.40174,0.91397l0.40135,0.91392l0.40095,0.91386l0.40054,0.91381l0.40011,0.91377l0.39965,0.91373l0.39919,0.9137l0.3987,0.91367l0.3982,0.91365l0.39768,0.91363l0.39715,0.91362l0.3966,0.9136l0.39603,0.9136l0.39545,0.91361l0.39484,0.91361l0.39423,0.91361l0.39359,0.91364l0.38811,0.90421l0.36576,0.8673l0.36206,0.87054l0.3585,0.87373l0.35506,0.87687l0.35175,0.87995l0.34855,0.88298l0.34549,0.88597l0.34255,0.88892l0.33975,0.8918l0.33708,0.89465l0.33453,0.89745l0.33211,0.90021l0.32984,0.90292l0.3277,0.9056l0.32568,0.90823l0.32381,0.91082l0.32207,0.91337l0.32047,0.91588l0.31901,0.91837l0.31768,0.9208l0.3165,0.9232l0.31546,0.92557l0.31456,0.92791l0.31381,0.9302l0.31319,0.93247l0.31272,0.9347l0.31241,0.93691l0.31222,0.93907l0.3122,0.94121l0.31232,0.94331l0.31259,0.94539l0.31301,0.94743l0.31359,0.94944l0.31431,0.95143l0.3152,0.95338l0.31624,0.9553l0.31742,0.95719l0.31879,0.95905l0.32029,0.96088l0.32196,0.96267l0.3238,0.96444l0.32579,0.96616l0.32796,0.96786l0.32771,0.96332l0.3181,0.93947l0.31743,0.93961l0.31674,0.93974l0.31607,0.93989l0.31538,0.94002l0.31469,0.94017l0.31399,0.9403l0.3133,0.94044l0.31261,0.94059l0.3119,0.94072l0.3112,0.94087l0.31049,0.94101l0.30978,0.94115l0.30907,0.94129l0.30835,0.94143l0.30764,0.94158l0.36071,0.92066l0.41121,0.9009l0.41053,0.90119l0.40987,0.9015l0.40919,0.9018l0.40852,0.9021l0.40784,0.90241l0.40716,0.90271l0.40648,0.90302l0.40579,0.90333l0.4051,0.90363l0.40442,0.90395l0.40372,0.90426l0.40303,0.90457l0.40233,0.90489l0.40162,0.9052l0.40093,0.90551l0.40022,0.90584l0.39952,0.90615l0.3988,0.90647l0.39809,0.90679l0.39738,0.90712l0.39666,0.90743l0.39594,0.90776l0.39522,0.90809l0.39449,0.9084l0.39377,0.90874l0.39304,0.90906l0.39231,0.9094l0.39158,0.90972l0.39084,0.91005l0.39011,0.91038l0.38936,0.91072l0.38863,0.91104l0.38788,0.91138l0.38713,0.91172l0.38639,0.91205l0.38564,0.91238l0.38488,0.91273l0.38414,0.91306l0.38337,0.9134l0.38262,0.91373l0.38186,0.91408l0.3811,0.91442l0.38034,0.91475l0.37956,0.9151l0.37881,0.91545l0.37803,0.91578l0.37726,0.91613l0.37649,0.91647l0.37572,0.91682l0.37494,0.91716l0.37416,0.91751l0.37338,0.91785l0.37261,0.9182l0.37182,0.91854l0.37103,0.9189l0.37025,0.91924l0.36946,0.91959l0.36868,0.91994l0.36788,0.92029l0.36709,0.92063l0.3663,0.92099l0.3655,0.92133l0.36471,0.92169l0.3639,0.92204l0.36311,0.92239l0.36231,0.92273l0.36151,0.92309l0.36071,0.92345l0.3599,0.92379l0.35909,0.92414l0.35829,0.9245l0.35748,0.92485l0.35667,0.9252l0.35499,0.92292l0.35109,0.91596l0.3498,0.9177l0.34856,0.91938l0.34742,0.92102l0.34635,0.92261l0.34536,0.92417l0.34445,0.92567l0.34363,0.92712l0.34287,0.92854l0.34222,0.92991l0.34163,0.93124l0.34112,0.93252l0.34071,0.93376l0.34037,0.93496l0.34011,0.93611l0.33994,0.93722l0.33985,0.93829l0.33985,0.93932l0.33992,0.94031l0.34008,0.94125l0.34034,0.94215l0.34066,0.94301l0.34108,0.94383l0.34157,0.94461l0.34217,0.94534l0.34283,0.94604l0.3436,0.94669l0.34443,0.94729l0.34536,0.94786l0.34638,0.94839l0.34748,0.94887l0.34867,0.94931l0.34994,0.94971l0.35131,0.95005l0.35275,0.95037l0.35429,0.95063l0.35591,0.95085l0.35763,0.95103l0.35942,0.95115l0.36131,0.95124l0.36328,0.95127l0.36535,0.95127l0.3675,0.9512l0.36973,0.9511l0.37206,0.95094l0.37447,0.95074l0.37698,0.95048l0.37956,0.95017l0.38225,0.94981l0.385,0.9494l0.38786,0.94893l0.3908,0.94841l0.39383,0.94783l0.39694,0.9472l0.40014,0.9465l0.40343,0.94576l0.4068,0.94494l0.41026,0.94408l0.4138,0.94314l0.41744,0.94214l0.42114,0.94108l0.42244,0.93384l0.41638,0.91437l0.41672,0.9141l0.41704,0.91384l0.41736,0.91357l0.41767,0.91332l0.41796,0.91306l0.41825,0.91283l0.41853,0.91258l0.41879,0.91235l0.41906,0.91213l0.41929,0.91191l0.41954,0.91169l0.41977,0.91148l0.41998,0.91128l0.42019,0.91108l0.42039,0.91089l0.42058,0.9107l0.42076,0.91053l0.42092,0.91034l0.42109,0.91018l0.42124,0.91002l0.42137,0.90986l0.42151,0.90971l0.42162,0.90957l0.42174,0.90942l0.42183,0.90929l0.42193,0.90917l0.42201,0.90904l0.42208,0.90893l0.42215,0.90881l0.42219,0.90872l0.42224,0.90861l0.42227,0.90852l0.42229,0.90844l0.42231,0.90835l0.42231,0.90828l0.42231,0.90821l0.42229,0.90814l0.42227,0.90809l0.42223,0.90804l0.42218,0.90799l0.42213,0.90795l0.42207,0.90792l0.422,0.90789l0.42191,0.90787l0.42182,0.90785l0.42171,0.90784l0.42161,0.90783l0.42148,0.90784l0.42135,0.90784l0.42121,0.90786l0.42106,0.90787l0.4209,0.9079l0.42073,0.90793l0.42055,0.90796l0.42035,0.908l0.42016,0.90806l0.41996,0.9081l0.41973,0.90817l0.4195,0.90823l0.41927,0.90829l0.41902,0.90838l0.41876,0.90846l0.41849,0.90854l0.41822,0.90864l0.41793,0.90874l0.41764,0.90884l0.41732,0.90896l0.41702,0.90906l0.41668,0.9092l0.41636,0.90931l0.416,0.90946l0.41566,0.90959l0.41528,0.90973l0.41492,0.90989l0.41453,0.91004l0.41413,0.9102l0.41374,0.91037l0.41331,0.91054l0.4129,0.91072l0.41246,0.91091l0.41202,0.91109l0.41157,0.91129l0.4111,0.91149l0.41063,0.91169l0.41015,0.91191l0.40966,0.91212l0.40915,0.91235l0.40864,0.91257l0.40812,0.91281l0.40759,0.91304l0.40704,0.91329l0.40649,0.91354l0.40594,0.91379l0.40536,0.91405l0.40764,0.92085l0.4215,0.93585l0.42918,0.92845l0.43578,0.92184l0.44141,0.916l0.44615,0.91085l0.45006,0.90633l0.45321,0.90241l0.45565,0.89906l0.45742,0.8962l0.45854,0.89386l0.45907,0.89196l0.45899,0.8905l0.45836,0.88947l0.45714,0.88883l0.45538,0.88858l0.45308,0.88869l0.45021,0.88917l0.44679,0.88999l0.44282,0.89115l0.43827,0.89264l0.43314,0.89445l0.4274,0.89658l0.42104,0.89902l0.41403,0.90177l0.40634,0.90481l0.39795,0.90814l0.38881,0.91178l0.37888,0.91568l0.36813,0.91986l0.35649,0.9243l0.34392,0.92899l0.33036,0.93392l0.31574,0.93906l0.29999,0.94439l0.28303,0.9499l0.26481,0.95552l0.24522,0.96124l0.22418,0.96697l0.20162,0.97269l0.17745,0.97829l0.15157,0.98368l0.12394,0.98876l0.09448,0.9934z" id="item1993-1" fill="#000000" stroke="none" stroke-width="1" stroke-linecap="butt" stroke-linejoin="miter"/></g><g id="Path-1-3"><path d="M455.12253,706.63785c-1.36448,-3.04868 -3.00071,-5.98976 -4.09345,-9.14605c-1.94581,-5.62028 1.1721,-13.64149 2.89145,-18.92218c4.27094,-13.11752 8.08822,-26.36534 12.21669,-39.50943c20.94059,-66.66999 47.66435,-131.46824 77.10797,-194.94263c26.67314,-57.50182 49.40686,-117.35586 78.67012,-173.27565" id="Path-1-4" fill-opacity="0" fill="#000000" stroke="#000000" stroke-width="0" stroke-linecap="round" stroke-linejoin="round"/><path d="M621.5463,271.74c0.01094,-0.04118 -0.00813,-0.08444 -0.04591,-0.10415c-0.03777,-0.01971 -0.08416,-0.0106 -0.11168,0.02192v0l-0.51799,0.85788l-0.51695,0.8586l-0.51592,0.85931l-0.51489,0.86001l-0.51388,0.8607l-0.51287,0.86138l-0.51187,0.86206l-0.51088,0.86273l-0.5099,0.86339l-0.50893,0.86404l-0.50796,0.86468l-0.507,0.86532l-0.50605,0.86595l-0.50511,0.86657l-0.50417,0.86718l-0.50325,0.86778l-0.50233,0.86838l-0.50142,0.86897l-0.50052,0.86955l-0.49962,0.87012l-0.49874,0.87069l-0.49786,0.87125l-0.497,0.8718l-0.49614,0.87234l-0.49528,0.87288l-0.49444,0.8734l-0.49361,0.87392l-0.49278,0.87444l-0.49196,0.87494l-0.49115,0.87544l-0.49035,0.87593l-0.48956,0.87642l-0.48878,0.8769l-0.488,0.87736l-0.48724,0.87783l-0.48648,0.87828l-0.48573,0.87873l-0.48499,0.87917l-0.48425,0.8796l-0.48353,0.88003l-0.48281,0.88045l-0.48211,0.88086l-0.48141,0.88127l-0.48072,0.88167l-0.48004,0.88206l-0.47937,0.88244l-0.4787,0.88282l-0.47805,0.88319l-0.4774,0.88356l-0.47677,0.88391l-0.47614,0.88426l-0.47552,0.88461l-0.47491,0.88495l-0.4743,0.88528l-0.47371,0.8856l-0.47312,0.88592l-0.47255,0.88623l-0.47198,0.88653l-0.47142,0.88683l-0.47087,0.88712l-0.47033,0.8874l-0.4698,0.88768l-0.46927,0.88795l-0.46876,0.88821l-0.46825,0.88847l-0.46775,0.88872l-0.46726,0.88897l-0.46678,0.8892l-0.46631,0.88944l-0.46585,0.88966l-0.4654,0.88988l-0.46495,0.89009l-0.46452,0.8903l-0.46409,0.8905l-0.46367,0.89069l-0.46326,0.89088l-0.46286,0.89106l-0.46247,0.89124l-0.46209,0.89141l-0.46171,0.89157l-0.46135,0.89172l-0.46099,0.89187l-0.46064,0.89202l-0.46031,0.89216l-0.45998,0.89229l-0.45966,0.89241l-0.45934,0.89253l-0.45904,0.89264l-0.45875,0.89275l-0.45846,0.89285l-0.45818,0.89295l-0.45792,0.89303l-0.45766,0.89312l-0.45741,0.89319l-0.45717,0.89326l-0.45693,0.89333l-0.45671,0.89339l-0.4565,0.89344l-0.45629,0.89348l-0.45609,0.89352l-0.4559,0.89356l-0.45573,0.89359l-0.45556,0.89361l-0.45539,0.89362l-0.45524,0.89363l-0.4551,0.89364l-0.45496,0.89364l-0.45484,0.89363l-0.45472,0.89361l-0.45461,0.89359l-0.45451,0.89357l-0.45442,0.89354l-0.45434,0.8935l-0.45427,0.89345l-0.4542,0.8934l-0.45415,0.89335l-0.4541,0.89329l-0.45406,0.89322l-0.45403,0.89315l-0.45401,0.89307l-0.454,0.89298l-0.454,0.89289l-0.45401,0.89279l-0.45402,0.89269l-0.45404,0.89258l-0.45408,0.89246l-0.45412,0.89234l-0.45417,0.89221l-0.45423,0.89208l-0.4543,0.89194l-0.45437,0.8918l-0.45446,0.89164l-0.45455,0.89149l-0.45466,0.89132l-0.45477,0.89116l-0.45489,0.89098l-0.45502,0.8908l-0.45516,0.89061l-0.4553,0.89042l-0.45546,0.89022l-0.45562,0.89001l-0.4558,0.8898l-0.45598,0.88958l-0.45617,0.88936l-0.45637,0.88913l-0.45657,0.8889l-0.45679,0.88865l-0.45702,0.88841l-0.45725,0.88815l-0.45749,0.88789l-0.45774,0.88762l-0.458,0.88735l-0.45827,0.88707l-0.45855,0.88679l-0.45884,0.8865l-0.45913,0.8862l-0.45943,0.8859l-0.45975,0.88559l-0.46007,0.88527l-0.4604,0.88495l-0.46073,0.88462l-0.46108,0.88429l-0.46143,0.88395l-0.4618,0.8836l-0.46217,0.88324l-0.46255,0.88288l-0.46294,0.88252l-0.46334,0.88215l-0.46374,0.88177l-0.46416,0.88138l-0.46458,0.88099l-0.46501,0.88059l-0.46545,0.88019l-0.4659,0.87977l-0.46636,0.87936l-0.46683,0.87893l-0.4673,0.8785l-0.46778,0.87807l-0.46827,0.87762l-0.46877,0.87717l-0.46928,0.87671l-0.4698,0.87625l-0.47032,0.87578l-0.47085,0.8753l-0.4714,0.87482l-0.47194,0.87433l-0.4725,0.87383l-0.47307,0.87333l-0.47364,0.87282l-0.47778,0.8805l-0.47967,0.8854l-0.47933,0.88564l-0.47898,0.88589l-0.47863,0.88613l-0.47828,0.88638l-0.47792,0.88663l-0.47757,0.88688l-0.47721,0.88713l-0.47685,0.88738l-0.47649,0.88763l-0.47613,0.88788l-0.47577,0.88814l-0.4754,0.88839l-0.47503,0.88865l-0.47466,0.88891l-0.47429,0.88917l-0.47392,0.88942l-0.47355,0.88969l-0.47317,0.88995l-0.47279,0.89021l-0.47241,0.89047l-0.47203,0.89074l-0.47165,0.891l-0.47126,0.89127l-0.47087,0.89154l-0.47048,0.8918l-0.47009,0.89207l-0.4697,0.89234l-0.46931,0.89261l-0.46891,0.89289l-0.46851,0.89316l-0.46811,0.89343l-0.46771,0.89371l-0.46731,0.89398l-0.4669,0.89426l-0.4665,0.89454l-0.46609,0.89482l-0.46568,0.8951l-0.46527,0.89538l-0.46485,0.89566l-0.46444,0.89594l-0.46402,0.89623l-0.4636,0.89651l-0.46318,0.8968l-0.46275,0.89709l-0.46233,0.89737l-0.4619,0.89766l-0.46147,0.89795l-0.46104,0.89824l-0.46061,0.89853l-0.40238,0.92398l-0.34097,0.9507l-0.34048,0.95087l-0.33998,0.95104l-0.33949,0.95121l-0.33899,0.95138l-0.33849,0.95156l-0.33799,0.95173l-0.33749,0.9519l-0.33698,0.95207l-0.33647,0.95225l-0.33596,0.95242l-0.33545,0.95259l-0.33494,0.95277l-0.33442,0.95294l-0.3339,0.95311l-0.33338,0.95329l-0.33286,0.95346l-0.33233,0.95364l-0.33181,0.95381l-0.33128,0.95398l-0.33075,0.95416l-0.33022,0.95433l-0.32968,0.95451l-0.32914,0.95468l-0.32861,0.95486l-0.32806,0.95503l-0.32752,0.95521l-0.32698,0.95538l-0.32643,0.95556l-0.32588,0.95573l-0.32533,0.95591l-0.32477,0.95608l-0.32422,0.95626l-0.32366,0.95644l-0.3231,0.95661l-0.32254,0.95679l-0.32197,0.95696l-0.32141,0.95714l-0.32084,0.95732l-0.32027,0.95749l-0.3197,0.95767l-0.31912,0.95785l-0.31854,0.95802l-0.31796,0.9582l-0.31738,0.95838l-0.3168,0.95855l-0.31622,0.95873l-0.31563,0.95891l-0.31504,0.95908l-0.31445,0.95926l-0.31385,0.95944l-0.31326,0.95961l-0.31266,0.95979l-0.31206,0.95997l-0.31146,0.96014l-0.31085,0.96032l-0.31025,0.9605l-0.30964,0.96067l-0.30903,0.96085l-0.30841,0.96103l-0.3078,0.9612l-0.30718,0.96138l-0.30656,0.96156l-0.30594,0.96173l-0.30532,0.96191l-0.30469,0.96209l-0.30406,0.96226l-0.30343,0.96244l-0.3028,0.96262l-0.30217,0.96279l-0.30153,0.96297l-0.30089,0.96314l-0.30025,0.96332l-0.29961,0.9635l-0.29896,0.96367l-0.29832,0.96385l-0.29767,0.96403l-0.29702,0.9642l-0.29636,0.96438l-0.29571,0.96455l-0.29505,0.96473l-0.29439,0.9649l-0.29373,0.96508l-0.29307,0.96525l-0.2924,0.96543l-0.29173,0.9656l-0.29106,0.96578l-0.29039,0.96595l-0.28971,0.96613l-0.28904,0.9663l-0.28836,0.96648l-0.28768,0.96665l-0.28699,0.96683l-0.28631,0.967l-0.28562,0.96717l-0.28493,0.96735l-0.28424,0.96752l-0.28354,0.96769l-0.28285,0.96787l-0.28215,0.96804l-0.28145,0.96821l-0.28075,0.96838l-0.28004,0.96856l-0.27933,0.96873l-0.27862,0.9689l-0.27791,0.96907l-0.2772,0.96924l-0.27648,0.96941l-0.27577,0.96958l-0.27505,0.96976l-0.27432,0.96993l-0.2736,0.9701l-0.27287,0.97027l-0.27215,0.97044l-0.27142,0.97061l-0.27068,0.97078l-0.26995,0.97094l-0.26921,0.97111l-0.26847,0.97128l-0.26773,0.97145l-0.26699,0.97162l-0.26624,0.97178l-0.26549,0.97195l-0.26474,0.97212l-0.26399,0.97229l-0.26324,0.97245l-0.26248,0.97262l-0.26172,0.97278l-0.26096,0.97295l-0.2602,0.97311l-0.25943,0.97328l-0.25867,0.97344l-0.2579,0.97361l-0.25713,0.97377l-0.25635,0.97394l-0.25558,0.9741l-0.2548,0.97426l-0.25402,0.97442l-0.25324,0.97459l-0.25245,0.97475l-0.25167,0.97491l-0.25088,0.97507l-0.25009,0.97523l-0.24929,0.97539l-0.2485,0.97555l-0.2477,0.97571l-0.2469,0.97587l-0.2461,0.97603l-0.2453,0.97618l-0.24449,0.97634l-0.24369,0.9765l-0.24288,0.97665l-0.24206,0.97681l-0.24125,0.97697l-0.24043,0.97712l-0.23962,0.97728l-0.2388,0.97743l-0.23797,0.97759l-0.23739,0.97887l-0.23628,0.97898l-0.23516,0.97886l-0.23411,0.97873l-0.23313,0.9786l-0.23222,0.97845l-0.23138,0.9783l-0.23061,0.97813l-0.22991,0.97797l-0.22928,0.97779l-0.22872,0.97761l-0.22823,0.97741l-0.22781,0.97722l-0.22745,0.97701l-0.22717,0.9768l-0.22695,0.97658l-0.22681,0.97636l-0.22673,0.97612l-0.22672,0.97589l-0.22678,0.97564l-0.22691,0.97539l-0.22711,0.97513l-0.22737,0.97486l-0.22771,0.97459l-0.22811,0.97431l-0.22858,0.97403l-0.22912,0.97373l-0.22973,0.97343l-0.23041,0.97312l-0.23115,0.97281l-0.23196,0.97248l-0.23284,0.97215l-0.23379,0.97181l-0.23481,0.97147l-0.2359,0.97111l-0.23705,0.97075l-0.23827,0.97037l-0.23956,0.96999l-0.24092,0.9696l-0.24234,0.9692l-0.24383,0.96879l-0.24421,0.9619l-0.25047,0.96266l-0.25472,0.9709l-0.25406,0.97791l-0.24948,0.9844l-0.24152,0.99076l-0.23043,0.99719l-0.21629,1.0038l-0.19899,1.01063l-0.17831,1.01768l-0.1539,1.02488l-0.12525,1.03212l-0.09171,1.03917l-0.05246,1.04565l-0.00647,1.05097l0.04744,1.05421l0.11059,1.05394l0.18418,1.04806l0.26899,1.0336l0.36417,1.00568l0.41294,0.93538l0.43857,0.91804l0.45908,0.90303l0.47471,0.89071l0.48572,0.88134l0.4923,0.87504l0.49458,0.87192l0.49263,0.87197l0.48643,0.87518l0.47591,0.88147v0v0v0l-0.35542,-0.93755l-0.36703,-0.93357l-0.37344,-0.93078l-0.3747,-0.92929l-0.37084,-0.92911l-0.36185,-0.93018l-0.34771,-0.93234l-0.32837,-0.93538l-0.30385,-0.93899l-0.27417,-0.94279l-0.19853,-0.91268l-0.11319,-0.9289l-0.03823,-0.93906l0.02706,-0.94397l0.08354,-0.94521l0.13228,-0.94402l0.17433,-0.94131l0.21066,-0.93774l0.24209,-0.93378l0.2693,-0.92977l0.29284,-0.92599l0.31318,-0.92265l0.33062,-0.91995l0.34544,-0.91809l0.35777,-0.91733l0.36766,-0.91799l0.37507,-0.92056l0.37977,-0.92578l0.38131,-0.93493l0.37665,-0.93929l0.37225,-0.93396l0.37079,-0.9345l0.36939,-0.93501l0.36805,-0.93548l0.36677,-0.93591l0.36555,-0.93631l0.36439,-0.93668l0.36329,-0.93701l0.36225,-0.9373l0.36127,-0.93757l0.36035,-0.93779l0.35949,-0.93799l0.3587,-0.93815l0.35796,-0.93827l0.35729,-0.93837l0.35667,-0.93843l0.35612,-0.93845l0.35563,-0.93845l0.3552,-0.93841l0.35483,-0.93834l0.35452,-0.93823l0.35427,-0.93809l0.35409,-0.93792l0.35396,-0.93772l0.3539,-0.93748l0.35389,-0.93721l0.35395,-0.93691l0.35407,-0.93658l0.35425,-0.93621l0.35449,-0.93581l0.35479,-0.93538l0.35515,-0.93492l0.35557,-0.93442l0.35606,-0.93389l0.3566,-0.93332l0.3572,-0.93272l0.35786,-0.93209l0.35859,-0.93143l0.35937,-0.93073l0.36021,-0.93l0.36118,-0.92946l0.36238,-0.93018l0.36314,-0.92984l0.36389,-0.92949l0.36464,-0.92915l0.36539,-0.92881l0.36614,-0.92847l0.36689,-0.92813l0.36763,-0.92778l0.36837,-0.92744l0.36911,-0.9271l0.36985,-0.92676l0.37058,-0.92642l0.37132,-0.92608l0.37205,-0.92575l0.37278,-0.92541l0.3735,-0.92507l0.37423,-0.92473l0.37495,-0.92439l0.37567,-0.92406l0.37639,-0.92372l0.37711,-0.92339l0.37782,-0.92305l0.37853,-0.92272l0.37924,-0.92238l0.37995,-0.92205l0.38066,-0.92171l0.38136,-0.92138l0.38206,-0.92105l0.38276,-0.92072l0.38346,-0.92039l0.38416,-0.92006l0.38485,-0.91972l0.38554,-0.91939l0.38623,-0.91907l0.38692,-0.91874l0.38761,-0.91841l0.38829,-0.91808l0.38897,-0.91775l0.38965,-0.91743l0.39033,-0.9171l0.391,-0.91677l0.39168,-0.91645l0.39235,-0.91612l0.39302,-0.9158l0.39368,-0.91548l0.39435,-0.91515l0.39501,-0.91483l0.39567,-0.91451l0.39633,-0.91419l0.39699,-0.91387l0.39765,-0.91355l0.3983,-0.91323l0.39895,-0.91291l0.3996,-0.91259l0.40025,-0.91227l0.40089,-0.91196l0.40154,-0.91164l0.40218,-0.91132l0.40282,-0.91101l0.40345,-0.91069l0.40409,-0.91038l0.40472,-0.91007l0.40535,-0.90975l0.40598,-0.90944l0.40661,-0.90913l0.40724,-0.90882l0.40786,-0.90851l0.40848,-0.9082l0.4091,-0.90789l0.40972,-0.90758l0.41033,-0.90728l0.41095,-0.90697l0.41156,-0.90666l0.41217,-0.90636l0.41278,-0.90605l0.41338,-0.90575l0.41399,-0.90544l0.41459,-0.90514l0.41519,-0.90484l0.41579,-0.90454l0.41638,-0.90424l0.41698,-0.90394l0.41757,-0.90364l0.41816,-0.90334l0.41875,-0.90304l0.41933,-0.90274l0.41992,-0.90245l0.4205,-0.90215l0.42108,-0.90186l0.42166,-0.90156l0.42224,-0.90127l0.42281,-0.90097l0.42338,-0.90068l0.42396,-0.90039l0.42452,-0.9001l0.42509,-0.89981l0.42566,-0.89952l0.42622,-0.89923l0.42678,-0.89894l0.42734,-0.89866l0.4279,-0.89837l0.42845,-0.89808l0.42901,-0.8978l0.42956,-0.89752l0.43011,-0.89723l0.43066,-0.89695l0.43121,-0.89667l0.43175,-0.89639l0.43229,-0.89611l0.43283,-0.89583l0.43337,-0.89555l0.43391,-0.89527l0.43444,-0.89499l0.43498,-0.89472l0.43551,-0.89444l0.43604,-0.89417l0.43657,-0.89389l0.43709,-0.89362l0.43761,-0.89335l0.43814,-0.89308l0.43866,-0.89281l0.43918,-0.89254l0.43969,-0.89227l0.44021,-0.892l0.44072,-0.89173l0.44123,-0.89146l0.44174,-0.8912l0.44225,-0.89093l0.44275,-0.89067l0.44326,-0.89041l0.44376,-0.89014l0.44426,-0.88988l0.44476,-0.88962l0.44525,-0.88936l0.44575,-0.8891l0.44624,-0.88884l0.44673,-0.88859l0.44722,-0.88833l0.44771,-0.88808l0.44819,-0.88782l0.44867,-0.88757l0.44916,-0.88731l0.44964,-0.88706l0.45011,-0.88681l0.45059,-0.88656l0.45107,-0.88631l0.45154,-0.88606l0.45201,-0.88581l0.45248,-0.88557l0.45295,-0.88532l0.45341,-0.88508l0.45388,-0.88483l0.45434,-0.88459l0.4548,-0.88435l0.45526,-0.8841l0.45571,-0.88386l0.45617,-0.88362l0.45662,-0.88338l0.39615,-0.90969l0.33886,-0.93473l0.33936,-0.93461l0.33986,-0.9345l0.34035,-0.93438l0.34085,-0.93427l0.34134,-0.93415l0.34183,-0.93404l0.34232,-0.93392l0.34281,-0.93381l0.34329,-0.93369l0.34377,-0.93358l0.34425,-0.93347l0.34473,-0.93335l0.34521,-0.93324l0.34569,-0.93313l0.34616,-0.93301l0.34663,-0.9329l0.3471,-0.93279l0.34757,-0.93267l0.34803,-0.93256l0.34849,-0.93245l0.34895,-0.93234l0.34941,-0.93223l0.34987,-0.93211l0.35033,-0.932l0.35078,-0.93189l0.35123,-0.93178l0.35168,-0.93167l0.35213,-0.93156l0.35257,-0.93145l0.35302,-0.93134l0.35346,-0.93123l0.3539,-0.93112l0.35434,-0.93101l0.35477,-0.9309l0.3552,-0.9308l0.35564,-0.93069l0.35607,-0.93058l0.35649,-0.93047l0.35692,-0.93036l0.35734,-0.93026l0.35777,-0.93015l0.35819,-0.93004l0.35861,-0.92994l0.35902,-0.92983l0.35944,-0.92973l0.35985,-0.92962l0.36026,-0.92951l0.36067,-0.92941l0.36107,-0.9293l0.36358,-0.93392l0.36677,-0.94204l0.36599,-0.94215l0.36523,-0.94226l0.36448,-0.94237l0.36374,-0.94247l0.36301,-0.94257l0.36229,-0.94267l0.36158,-0.94276l0.36088,-0.94285l0.3602,-0.94294l0.35952,-0.94303l0.35886,-0.94311l0.3582,-0.94319l0.35756,-0.94326l0.35692,-0.94333l0.3563,-0.9434l0.35569,-0.94347l0.35509,-0.94354l0.3545,-0.9436l0.35392,-0.94365l0.35335,-0.94371l0.35279,-0.94376l0.35224,-0.94381l0.3517,-0.94386l0.35117,-0.9439l0.35066,-0.94395l0.35015,-0.94398l0.34966,-0.94402l0.34917,-0.94405l0.3487,-0.94408l0.34824,-0.94411l0.34778,-0.94414l0.34734,-0.94416l0.34691,-0.94418l0.34649,-0.9442l0.34608,-0.94421l0.34568,-0.94423l0.34529,-0.94424l0.34491,-0.94424l0.34454,-0.94425l0.34419,-0.94425l0.34384,-0.94425l0.3435,-0.94425l0.34318,-0.94424l0.34286,-0.94424l0.34255,-0.94423l0.34226,-0.94421l0.34198,-0.9442l0.3417,-0.94418l0.34144,-0.94416l0.34119,-0.94414l0.34094,-0.94412l0.34071,-0.94409l0.34049,-0.94406l0.34028,-0.94403l0.34008,-0.94399l0.33989,-0.94396l0.33971,-0.94392l0.33954,-0.94388l0.33938,-0.94383l0.33923,-0.94379l0.3391,-0.94374l0.33897,-0.94369l0.33885,-0.94364l0.33875,-0.94358l0.33865,-0.94352l0.33856,-0.94346l0.33849,-0.9434l0.33842,-0.94334l0.33837,-0.94327l0.33833,-0.9432l0.33829,-0.94313l0.33827,-0.94306l0.33826,-0.94298l0.33825,-0.9429l0.33826,-0.94282l0.33828,-0.94274l0.33831,-0.94265l0.33835,-0.94256l0.3384,-0.94247l0.33845,-0.94238l0.33853,-0.94229l0.33861,-0.94219l0.3387,-0.94209l0.3388,-0.94199l0.33891,-0.94188l0.33903,-0.94178l0.33916,-0.94167l0.33931,-0.94156l0.33946,-0.94144l0.33962,-0.94133l0.3398,-0.94121l0.33998,-0.94109l0.34017,-0.94096l0.34038,-0.94084l0.34059,-0.94071l0.34082,-0.94058l0.34106,-0.94044l0.3413,-0.94031l0.34156,-0.94017l0.34182,-0.94003l0.3421,-0.93989l0.34239,-0.93974l0.34269,-0.93959l0.343,-0.93944l0.34332,-0.93929l0.34364,-0.93913l0.34398,-0.93898l0.34433,-0.93882l0.34469,-0.93865l0.34506,-0.93849l0.34545,-0.93832l0.34584,-0.93815l0.34624,-0.93797l0.34665,-0.9378l0.34707,-0.93762l0.34751,-0.93744l0.34795,-0.93725l0.3484,-0.93706l0.34887,-0.93687l0.34934,-0.93668l0.34983,-0.93649l0.35032,-0.93629l0.35083,-0.93609l0.35134,-0.93588l0.35187,-0.93568l0.35241,-0.93547l0.35295,-0.93525l0.35351,-0.93504l0.35408,-0.93482l0.35466,-0.9346l0.35525,-0.93438l0.35584,-0.93415l0.35645,-0.93392l0.35707,-0.93369l0.3577,-0.93345l0.35835,-0.93321l0.359,-0.93297l0.35966,-0.93272l0.36033,-0.93248l0.36101,-0.93222l0.36171,-0.93197l0.36241,-0.93171l0.36312,-0.93145l0.36385,-0.93119l0.36458,-0.93092l0.36533,-0.93065l0.36608,-0.93037l0.36685,-0.93009l0.36763,-0.92981l0.36841,-0.92953l0.36921,-0.92924l0.37002,-0.92895l0.37084,-0.92865l0.37166,-0.92835l0.3725,-0.92805l0.37335,-0.92775l0.37421,-0.92744l0.37508,-0.92712l0.37596,-0.92681l0.37685,-0.92649l0.37776,-0.92616l0.37867,-0.92583l0.37959,-0.9255l0.38052,-0.92517l0.38147,-0.92483l0.38242,-0.92448l0.38339,-0.92414l0.38436,-0.92378l0.38535,-0.92343l0.38634,-0.92307l0.38735,-0.92271l0.38836,-0.92234l0.38939,-0.92197l0.39043,-0.92159l0.39148,-0.92121l0.39253,-0.92083l0.3936,-0.92044l0.39468,-0.92004l0.39577,-0.91965l0.39687,-0.91924l0.39798,-0.91884l0.3991,-0.91843l0.40023,-0.91801l0.40137,-0.91759l0.40252,-0.91716l0.40368,-0.91674l0.40486,-0.9163l0.40604,-0.91586z" id="item3866-1" fill="#000000" stroke="none" stroke-width="1" stroke-linecap="butt" stroke-linejoin="miter"/></g></g></g></g></svg>